<svg width="435" height="187" viewBox="0 0 435 187" fill="none" xmlns="http://www.w3.org/2000/svg">
<path d="M69.3996 29.3414C69.3996 11.1123 55.5943 0 35.3217 0H0V87.5247H18.5314V59.8065H35.3217C55.5943 59.8065 69.3996 47.5705 69.3996 29.3414ZM50.9925 29.716C50.9925 38.4559 44.5252 42.7011 32.088 42.7011H18.5314V17.1054H32.088C44.6496 17.1054 50.9925 20.8511 50.9925 29.716Z" fill="currentColor"/>
<path d="M100.281 72.5419C93.9378 72.5419 90.9529 67.7973 90.9529 61.1799V26.3448H73.2921V61.929C73.2921 79.2842 81.7494 88.8981 95.9278 88.8981C101.773 88.8981 107.37 87.1501 111.101 83.2796V87.5247H128.389V26.3448H110.728V57.6839C110.728 67.0482 107.992 72.5419 100.281 72.5419Z" fill="currentColor"/>
<path d="M167.391 25.4708C158.685 25.4708 155.078 31.4639 155.203 31.4639V26.3448H137.791V87.5247H155.451V54.4376C155.451 45.4479 161.421 42.5762 166.769 42.5762C173.734 42.5762 178.336 47.3208 178.336 47.3208V29.8408C178.336 29.8408 174.854 25.4708 167.391 25.4708Z" fill="currentColor"/>
<path d="M217.923 24.8465C211.083 24.8465 204.988 27.5934 201.755 30.7148V26.3448H184.343V111.747H202.004V83.6541C205.113 86.401 210.958 88.8981 217.923 88.8981C234.838 88.8981 248.643 76.2876 248.643 56.9348C248.643 37.0825 234.838 24.8465 217.923 24.8465ZM216.182 40.9531C224.391 40.9531 230.609 47.4456 230.609 56.9348C230.609 66.4239 224.391 72.9165 216.182 72.9165C207.973 72.9165 201.755 66.4239 201.755 56.9348C201.755 47.4456 207.973 40.9531 216.182 40.9531Z" fill="currentColor"/>
<path d="M284.864 88.8981C303.272 88.8981 317.326 75.2887 317.326 56.9348C317.326 38.5808 303.272 24.8465 284.864 24.8465C266.457 24.8465 252.403 38.5808 252.403 56.9348C252.403 75.2887 266.457 88.8981 284.864 88.8981ZM284.864 41.4525C293.197 41.4525 299.292 47.9451 299.292 56.9348C299.292 65.9245 293.197 72.417 284.864 72.417C276.532 72.417 270.437 65.9245 270.437 56.9348C270.437 47.9451 276.532 41.4525 284.864 41.4525Z" fill="currentColor"/>
<path d="M347.294 74.4147C340.703 74.4147 337.593 72.1673 336.598 67.9222H318.813C320.554 80.6576 329.882 88.8981 347.294 88.8981C364.333 88.8981 372.915 80.6576 372.915 68.7962C372.915 58.3082 366.448 52.1902 353.389 49.5682L344.185 47.6954C339.583 46.8214 338.091 45.6976 338.091 43.8248C338.091 41.3276 340.827 39.5797 345.802 39.5797C351.026 39.5797 353.886 41.5774 354.881 44.9485H371.671C370.428 34.3357 362.841 24.8465 345.926 24.8465C329.136 24.8465 321.052 34.4605 321.052 45.1982C321.052 54.3128 326.897 60.9302 340.703 63.677L349.906 65.5499C354.757 66.5487 355.876 68.047 355.876 69.9199C355.876 72.6667 353.264 74.4147 347.294 74.4147Z" fill="currentColor"/>
<path d="M435 57.0596C435 40.7034 424.801 24.8465 404.778 24.8465C386.868 24.8465 373.933 38.8305 373.933 57.3093C373.933 76.5373 388.112 88.8981 405.773 88.8981C420.946 88.8981 430.398 80.6576 434.503 67.4227H415.474C413.608 70.5442 410.623 72.6667 405.524 72.6667C397.937 72.6667 392.838 67.9222 391.843 61.6793H434.876C434.876 61.6793 435 58.6828 435 57.0596ZM416.344 49.8179H392.714C393.833 44.5739 398.31 40.4537 405.026 40.4537C411.369 40.4537 415.971 44.4491 416.344 49.8179Z" fill="currentColor"/>
<path d="M41.2915 185.627C59.4498 185.627 71.3896 175.388 71.3896 160.031C71.3896 152.165 68.2803 145.672 60.3204 140.054C65.9172 135.684 69.2752 129.066 69.2752 122.324C69.2752 106.342 56.9624 98.1019 39.1772 98.1019H0V185.627H41.2915ZM50.6194 124.197C50.6194 130.065 46.2664 133.187 36.1923 133.187H18.5314V115.207H35.446C45.8933 115.207 50.6194 117.455 50.6194 124.197ZM18.5314 148.794H37.5604C46.5152 148.794 52.7338 151.291 52.7338 158.408C52.7338 166.149 46.6395 168.521 37.0629 168.521H18.5314V148.794Z" fill="currentColor"/>
<path d="M108.144 123.573C99.4384 123.573 95.8316 129.566 95.956 129.566V124.447H78.5439V185.627H96.2047V152.539C96.2047 143.55 102.175 140.678 107.523 140.678C114.487 140.678 119.089 145.423 119.089 145.423V127.943C119.089 127.943 115.607 123.573 108.144 123.573Z" fill="currentColor"/>
<path d="M161.881 185.627H176.432V148.419C176.432 131.813 165.985 122.948 149.692 122.948C133.027 122.948 123.077 132.188 122.206 145.548H139.245C139.618 141.802 142.603 138.306 149.568 138.306C155.289 138.306 158.523 140.678 158.523 144.174C158.523 147.795 155.165 148.919 144.593 149.543C130.788 150.292 120.963 156.035 120.963 167.647C120.963 179.384 130.788 187 142.976 187C150.563 187 156.284 184.253 160.264 179.384L161.881 185.627ZM148.822 160.78C155.538 160.405 158.772 158.907 158.772 158.907V161.155C158.772 168.771 153.424 172.517 146.708 172.517C141.733 172.517 138.623 170.394 138.623 166.898C138.623 163.527 141.484 161.155 148.822 160.78Z" fill="currentColor"/>
<path d="M213.746 139.43C220.835 139.43 223.82 144.923 223.82 151.416V185.627H241.481V150.042C241.481 132.687 231.656 122.948 216.731 122.948C210.512 122.948 205.662 125.446 202.304 128.692V124.447H184.892V185.627H202.553V155.037C202.553 145.672 205.413 139.43 213.746 139.43Z" fill="currentColor"/>
<path d="M276.963 187C283.803 187 289.898 184.378 293.131 181.257V185.627H310.543V98.1019H292.883V128.317C289.773 125.57 283.928 122.948 276.963 122.948C260.048 122.948 246.243 135.684 246.243 155.037C246.243 174.764 260.048 187 276.963 187ZM278.704 171.018C270.496 171.018 264.277 164.526 264.277 155.037C264.277 145.548 270.496 139.055 278.704 139.055C286.913 139.055 293.131 145.548 293.131 155.037C293.131 164.526 286.913 171.018 278.704 171.018Z" fill="currentColor"/>
<path d="M344.899 172.517C338.308 172.517 335.198 170.269 334.203 166.024H316.418C318.159 178.759 327.487 187 344.899 187C361.938 187 370.52 178.759 370.52 166.898C370.52 156.41 364.053 150.292 350.993 147.67L341.79 145.797C337.188 144.923 335.696 143.8 335.696 141.927C335.696 139.43 338.432 137.682 343.407 137.682C348.63 137.682 351.491 139.679 352.486 143.05H369.276C368.032 132.438 360.446 122.948 343.531 122.948C326.741 122.948 318.657 132.562 318.657 143.3C318.657 152.415 324.502 159.032 338.308 161.779L347.511 163.652C352.362 164.651 353.481 166.149 353.481 168.022C353.481 170.769 350.869 172.517 344.899 172.517Z" fill="currentColor"/>
</svg>
